<!DOCTYPE svg PUBLIC "-//W3C//DTD SVG 1.1//EN" "http://www.w3.org/Graphics/SVG/1.1/DTD/svg11.dtd">

<!-- Uploaded to: SVG Repo, www.svgrepo.com, Transformed by: SVG Repo Mixer Tools -->
<svg fill="#ffffff" width="800px" height="800px" viewBox="0 0 256 256" id="Flat"
    xmlns="http://www.w3.org/2000/svg" stroke="#ffffff">

    <g id="SVGRepo_bgCarrier" stroke-width="0"/>

    <g id="SVGRepo_tracerCarrier" stroke-linecap="round" stroke-linejoin="round"/>

    <g id="SVGRepo_iconCarrier">
        <path filter="brightness(1) invert(0)" d="M90.65723,66.98926,22.021,128l68.63623,61.01074a3.99957,3.99957,0,1,1-5.31446,5.97852l-72-64a3.99871,3.99871,0,0,1,0-5.97852l72-64a3.99957,3.99957,0,1,1,5.31446,5.97852Zm152,58.02148-72-64a3.99957,3.99957,0,1,0-5.31446,5.97852L233.979,128l-68.63623,61.01074a3.99957,3.99957,0,1,0,5.31446,5.97852l72-64a3.99871,3.99871,0,0,0,0-5.97852Z"/>
    </g>

</svg>